<svg xmlns="http://www.w3.org/2000/svg" xmlns:xlink="http://www.w3.org/1999/xlink" width="500" zoomAndPan="magnify" viewBox="0 0 375 374.999991" height="500" preserveAspectRatio="xMidYMid meet" version="1.0"><defs><clipPath id="8d2ffdcc97"><path d="M 84 170 L 356 170 L 356 264.75 L 84 264.75 Z M 84 170 " clip-rule="nonzero"/></clipPath><clipPath id="08661b4813"><path d="M 161 37.5 L 174 37.5 L 174 80 L 161 80 Z M 161 37.5 " clip-rule="nonzero"/></clipPath></defs><path fill="#f58733" d="M 185.121094 214.914062 L 185.066406 214.882812 L 185.121094 214.925781 L 185.175781 214.957031 C 185.117188 214.914062 185.382812 215.089844 185.121094 214.914062 Z M 185.121094 214.914062 " fill-opacity="1" fill-rule="evenodd"/><path fill="#00b0f0" d="M 374.34375 221.925781 C 374.742188 222.597656 374.949219 222.949219 374.949219 222.949219 L 374.34375 222.371094 L 373.738281 221.789062 L 373.132812 221.210938 L 372.527344 220.628906 L 371.921875 220.050781 L 371.316406 219.46875 L 370.714844 218.890625 L 370.105469 218.308594 L 369.5 217.730469 L 368.898438 217.148438 L 368.644531 216.910156 L 368.289062 216.574219 L 367.683594 215.996094 L 367.082031 215.421875 L 366.472656 214.847656 L 365.867188 214.277344 L 365.265625 213.710938 L 364.660156 213.152344 L 364.050781 212.601562 L 363.449219 212.050781 L 362.84375 211.507812 L 362.234375 210.972656 L 361.636719 210.445312 L 361.410156 210.25 L 361.03125 209.914062 L 360.421875 209.375 L 359.820312 208.84375 L 359.214844 208.316406 L 358.613281 207.792969 L 358.003906 207.273438 L 357.398438 206.757812 L 356.796875 206.253906 L 356.1875 205.75 L 355.582031 205.257812 L 354.980469 204.769531 L 354.371094 204.292969 L 353.765625 203.824219 L 353.164062 203.359375 L 352.554688 202.90625 L 351.949219 202.460938 L 351.347656 202.027344 L 350.738281 201.597656 L 350.132812 201.175781 L 349.53125 200.757812 L 348.925781 200.34375 L 348.316406 199.9375 L 347.714844 199.539062 L 347.109375 199.152344 L 346.5 198.765625 L 345.898438 198.390625 L 345.292969 198.027344 L 344.683594 197.667969 L 344.082031 197.320312 L 343.476562 196.980469 L 342.871094 196.648438 L 342.265625 196.324219 L 341.660156 196.011719 L 341.054688 195.703125 L 340.578125 195.46875 L 340.449219 195.40625 L 339.84375 195.121094 L 339.242188 194.84375 L 338.632812 194.578125 L 338.027344 194.328125 L 337.425781 194.082031 L 336.816406 193.851562 L 336.210938 193.628906 L 335.609375 193.414062 L 335 193.214844 L 334.394531 193.023438 L 333.792969 192.84375 L 333.183594 192.671875 L 332.578125 192.515625 L 331.976562 192.367188 L 331.367188 192.234375 L 330.765625 192.109375 L 330.160156 191.996094 L 329.550781 191.890625 L 328.949219 191.800781 L 328.34375 191.722656 L 327.75 191.652344 L 327.738281 191.652344 C 327.535156 191.628906 327.335938 191.609375 327.132812 191.585938 C 326.929688 191.570312 326.726562 191.550781 326.527344 191.535156 L 325.921875 191.496094 L 325.316406 191.46875 L 324.710938 191.457031 L 324.105469 191.453125 L 323.5 191.460938 L 322.894531 191.480469 C 322.695312 191.492188 322.492188 191.5 322.289062 191.511719 L 321.683594 191.554688 L 321.078125 191.609375 L 320.472656 191.675781 L 319.867188 191.75 L 319.261719 191.835938 L 318.660156 191.925781 L 318.054688 192.03125 L 317.445312 192.144531 L 316.839844 192.265625 L 316.238281 192.398438 L 315.628906 192.539062 L 315.027344 192.6875 L 314.421875 192.84375 L 314.046875 192.949219 L 313.816406 193.011719 L 313.214844 193.195312 L 312.609375 193.386719 L 312 193.59375 L 311.398438 193.804688 L 310.792969 194.019531 L 310.1875 194.246094 L 308.976562 194.722656 L 308.371094 194.972656 L 307.765625 195.230469 L 307.160156 195.492188 L 306.554688 195.765625 L 305.949219 196.046875 L 305.34375 196.332031 L 304.742188 196.628906 L 304.132812 196.929688 L 303.527344 197.242188 L 302.925781 197.554688 L 302.316406 197.871094 L 301.710938 198.203125 L 301.109375 198.539062 L 300.503906 198.878906 L 300.023438 199.15625 L 299.898438 199.230469 L 299.296875 199.601562 L 298.691406 199.964844 L 298.082031 200.335938 L 297.480469 200.703125 L 296.875 201.070312 L 296.570312 201.253906 L 296.265625 201.445312 L 295.664062 201.832031 L 295.058594 202.226562 L 294.449219 202.613281 L 293.847656 203.003906 L 293.242188 203.394531 L 292.988281 203.5625 L 292.640625 203.792969 L 292.03125 204.195312 L 291.425781 204.589844 L 290.820312 204.992188 L 290.210938 205.382812 L 289.605469 205.773438 L 289.003906 206.152344 L 288.394531 206.523438 L 287.792969 206.886719 L 287.1875 207.238281 L 286.582031 207.578125 L 285.976562 207.90625 L 285.585938 208.109375 L 285.371094 208.234375 L 284.761719 208.566406 L 284.160156 208.890625 L 283.554688 209.210938 L 282.945312 209.523438 L 282.339844 209.828125 L 281.734375 210.125 L 281.125 210.414062 L 280.523438 210.695312 L 279.917969 210.964844 L 279.308594 211.226562 C 279.109375 211.3125 278.910156 211.394531 278.703125 211.480469 L 278.097656 211.71875 L 277.488281 211.949219 L 276.886719 212.167969 L 276.28125 212.378906 L 275.679688 212.574219 L 275.070312 212.757812 L 274.464844 212.929688 L 273.855469 213.09375 C 273.65625 213.144531 273.457031 213.199219 273.253906 213.242188 C 273.054688 213.289062 272.847656 213.335938 272.648438 213.375 C 272.445312 213.417969 272.246094 213.460938 272.042969 213.5 L 271.433594 213.613281 C 271.234375 213.648438 271.03125 213.675781 270.828125 213.707031 L 270.253906 213.785156 L 270.21875 213.789062 C 270.019531 213.820312 269.820312 213.847656 269.617188 213.875 C 269.417969 213.898438 269.210938 213.921875 269.011719 213.941406 C 268.808594 213.964844 268.609375 213.976562 268.40625 213.996094 C 268.203125 214.007812 268.003906 214.023438 267.796875 214.035156 C 267.597656 214.042969 267.394531 214.046875 267.191406 214.050781 C 266.988281 214.058594 266.789062 214.0625 266.582031 214.0625 C 266.382812 214.0625 266.183594 214.058594 265.980469 214.050781 C 265.78125 214.046875 265.578125 214.039062 265.375 214.03125 C 265.171875 214.023438 264.972656 214.003906 264.769531 213.992188 C 264.566406 213.976562 264.367188 213.960938 264.160156 213.9375 C 263.960938 213.917969 263.757812 213.894531 263.558594 213.871094 L 262.953125 213.785156 L 262.34375 213.6875 C 262.144531 213.652344 261.941406 213.617188 261.742188 213.574219 C 261.535156 213.535156 261.335938 213.492188 261.136719 213.445312 C 260.933594 213.402344 260.730469 213.355469 260.527344 213.300781 C 260.328125 213.253906 260.121094 213.203125 259.921875 213.144531 C 259.71875 213.09375 259.515625 213.03125 259.316406 212.976562 L 258.707031 212.792969 C 258.507812 212.726562 258.300781 212.660156 258.101562 212.589844 C 257.898438 212.519531 257.699219 212.445312 257.5 212.378906 C 257.296875 212.304688 257.09375 212.222656 256.890625 212.144531 C 256.691406 212.066406 256.484375 211.980469 256.285156 211.898438 C 256.082031 211.816406 255.878906 211.722656 255.679688 211.636719 L 255.273438 211.449219 L 255.074219 211.355469 C 254.875 211.265625 254.667969 211.167969 254.472656 211.070312 L 253.867188 210.773438 L 253.257812 210.457031 L 252.65625 210.136719 L 252.050781 209.800781 L 251.449219 209.453125 L 250.839844 209.097656 L 250.234375 208.726562 L 249.632812 208.351562 L 249.023438 207.957031 L 248.417969 207.558594 L 247.8125 207.148438 L 247.203125 206.722656 L 246.601562 206.292969 L 245.996094 205.851562 L 245.386719 205.398438 L 244.78125 204.941406 L 244.175781 204.46875 L 243.566406 203.992188 L 243.066406 203.589844 L 242.964844 203.507812 L 242.359375 203.019531 L 241.75 202.527344 L 241.144531 202.03125 L 240.542969 201.523438 L 239.933594 201.015625 L 239.328125 200.5 L 238.722656 199.980469 L 238.113281 199.453125 L 237.511719 198.917969 L 236.90625 198.378906 L 236.296875 197.839844 L 235.691406 197.289062 L 235.089844 196.734375 L 234.480469 196.175781 L 233.875 195.609375 L 233.441406 195.199219 L 233.273438 195.03125 L 232.0625 193.867188 L 231.460938 193.289062 L 230.855469 192.710938 L 230.246094 192.132812 L 229.644531 191.554688 L 229.039062 190.976562 L 228.433594 190.386719 L 227.828125 189.789062 C 227.621094 189.585938 227.421875 189.382812 227.222656 189.183594 C 227.015625 188.972656 226.816406 188.765625 226.617188 188.558594 L 226.203125 188.125 L 226.011719 187.929688 L 225.40625 187.324219 L 224.796875 186.710938 L 224.191406 186.089844 L 223.589844 185.457031 L 222.980469 184.820312 L 222.378906 184.171875 C 222.160156 183.9375 221.964844 183.714844 221.773438 183.507812 L 221.574219 183.289062 L 221.164062 182.847656 C 220.929688 182.59375 220.730469 182.371094 220.5625 182.175781 C 220.164062 181.722656 219.957031 181.472656 219.957031 181.472656 C 219.957031 181.472656 220.160156 181.492188 220.5625 181.558594 C 220.730469 181.589844 220.933594 181.625 221.164062 181.667969 C 221.347656 181.703125 221.550781 181.746094 221.773438 181.792969 L 221.816406 181.800781 L 222.378906 181.90625 L 222.980469 182.035156 L 223.589844 182.167969 L 224.191406 182.308594 L 224.796875 182.457031 L 225.40625 182.609375 L 226.011719 182.765625 L 226.617188 182.933594 L 227.023438 183.046875 L 227.222656 183.09375 L 227.828125 183.253906 L 228.433594 183.429688 L 229.039062 183.613281 L 229.644531 183.804688 L 230.246094 184 L 230.855469 184.203125 L 231.460938 184.40625 L 232.0625 184.613281 L 232.667969 184.816406 L 233.273438 185.023438 L 233.878906 185.226562 L 234.484375 185.425781 L 235.09375 185.628906 L 235.695312 185.84375 L 236.300781 186.058594 L 236.910156 186.28125 L 237.515625 186.503906 L 238.117188 186.730469 L 238.726562 186.964844 L 239.332031 187.195312 L 239.9375 187.429688 L 240.546875 187.664062 L 241.148438 187.902344 L 241.753906 188.136719 L 242.363281 188.371094 L 242.96875 188.609375 L 243.570312 188.84375 L 244.179688 189.078125 L 244.785156 189.308594 L 245.242188 189.488281 L 245.386719 189.546875 L 245.996094 189.789062 L 246.601562 190.03125 L 247.203125 190.265625 L 247.8125 190.496094 L 248.417969 190.722656 L 249.023438 190.945312 L 249.632812 191.164062 L 250.234375 191.378906 L 250.839844 191.582031 L 251.449219 191.785156 L 252.050781 191.976562 L 252.65625 192.167969 L 253.257812 192.347656 L 253.867188 192.519531 L 254.472656 192.691406 L 255.074219 192.851562 L 255.683594 193.007812 L 256.289062 193.15625 L 256.890625 193.296875 L 256.894531 193.296875 C 257.097656 193.339844 257.296875 193.378906 257.503906 193.421875 C 257.703125 193.460938 257.90625 193.503906 258.105469 193.535156 L 258.710938 193.636719 C 258.914062 193.667969 259.113281 193.699219 259.320312 193.722656 L 259.925781 193.796875 C 260.125 193.820312 260.328125 193.84375 260.53125 193.859375 C 260.734375 193.882812 260.933594 193.894531 261.140625 193.90625 L 261.746094 193.941406 C 261.949219 193.953125 262.148438 193.957031 262.347656 193.964844 C 262.550781 193.96875 262.75 193.96875 262.957031 193.96875 L 263.5625 193.960938 C 263.761719 193.957031 263.964844 193.945312 264.164062 193.9375 L 264.773438 193.902344 L 265.378906 193.855469 L 265.984375 193.792969 L 266.589844 193.71875 L 267.195312 193.632812 L 267.800781 193.527344 L 268.410156 193.410156 L 269.015625 193.285156 L 269.273438 193.226562 L 269.621094 193.136719 C 269.824219 193.082031 270.023438 193.027344 270.226562 192.96875 L 270.832031 192.796875 L 271.4375 192.609375 L 272.046875 192.410156 L 272.652344 192.207031 L 273.863281 191.777344 L 274.46875 191.554688 L 275.074219 191.328125 L 275.683594 191.101562 L 275.855469 191.039062 L 276.285156 190.832031 L 276.890625 190.546875 L 277.492188 190.269531 L 278.101562 189.992188 L 278.707031 189.710938 L 279.316406 189.433594 L 279.921875 189.148438 L 280.527344 188.859375 L 281.738281 188.253906 L 282.34375 187.941406 L 282.730469 187.734375 L 282.953125 187.621094 L 283.558594 187.308594 L 284.164062 186.988281 L 284.769531 186.660156 L 285.375 186.335938 L 285.980469 186 L 286.589844 185.664062 L 287.191406 185.328125 L 287.796875 184.992188 L 288.398438 184.65625 L 289.007812 184.324219 L 289.609375 183.996094 L 289.800781 183.894531 L 290.214844 183.65625 L 290.824219 183.3125 L 291.429688 182.960938 L 292.035156 182.617188 L 292.644531 182.273438 L 293.246094 181.929688 L 293.476562 181.792969 L 293.847656 181.59375 L 294.449219 181.269531 L 295.058594 180.953125 L 295.664062 180.636719 L 296.265625 180.332031 L 296.875 180.03125 L 297.339844 179.804688 L 297.480469 179.734375 L 298.082031 179.445312 L 298.691406 179.164062 L 299.296875 178.882812 L 299.898438 178.613281 L 300.507812 178.351562 L 301.113281 178.09375 L 301.714844 177.847656 L 302.324219 177.605469 L 302.929688 177.371094 L 303.53125 177.144531 L 304.140625 176.921875 L 304.746094 176.707031 L 305.347656 176.507812 L 305.957031 176.304688 L 306.558594 176.117188 L 307.164062 175.941406 L 307.769531 175.769531 L 308.375 175.605469 L 308.980469 175.449219 L 309.585938 175.304688 L 310.191406 175.167969 L 311.402344 174.917969 L 312.007812 174.808594 L 312.613281 174.710938 L 313.027344 174.644531 L 313.214844 174.617188 L 313.816406 174.53125 L 314.425781 174.453125 L 315.03125 174.386719 L 315.632812 174.328125 L 316.242188 174.285156 L 316.84375 174.25 L 317.449219 174.226562 L 318.058594 174.210938 L 318.664062 174.207031 L 319.265625 174.214844 L 319.875 174.234375 L 320.476562 174.261719 L 321.082031 174.296875 L 321.691406 174.34375 L 322.292969 174.402344 L 322.898438 174.472656 L 323.507812 174.550781 L 324.109375 174.644531 L 324.714844 174.746094 L 325.320312 174.851562 L 325.925781 174.976562 L 326.53125 175.109375 L 327.136719 175.253906 L 327.742188 175.40625 L 328.347656 175.574219 L 328.617188 175.652344 L 328.953125 175.757812 L 329.558594 175.949219 L 330.164062 176.152344 L 330.769531 176.371094 L 331.375 176.597656 L 331.980469 176.839844 L 332.582031 177.085938 L 333.1875 177.347656 L 333.796875 177.625 L 334.398438 177.90625 L 335.003906 178.199219 C 335.210938 178.300781 335.410156 178.40625 335.613281 178.503906 L 336.214844 178.824219 L 336.820312 179.148438 L 337.429688 179.492188 L 338.03125 179.847656 C 338.234375 179.96875 338.4375 180.089844 338.636719 180.214844 L 339.246094 180.59375 C 339.445312 180.71875 339.644531 180.855469 339.847656 180.988281 C 340.050781 181.117188 340.253906 181.253906 340.453125 181.390625 C 340.65625 181.53125 340.859375 181.671875 341.0625 181.8125 L 341.664062 182.242188 C 341.867188 182.390625 342.070312 182.539062 342.269531 182.6875 L 342.605469 182.9375 L 342.878906 183.140625 L 343.480469 183.605469 L 344.085938 184.078125 L 344.6875 184.566406 L 345.296875 185.066406 L 345.902344 185.574219 L 346.503906 186.09375 L 347.113281 186.621094 L 347.71875 187.164062 L 348.320312 187.71875 L 348.929688 188.285156 L 349.535156 188.859375 L 350.136719 189.453125 L 350.746094 190.054688 L 351.351562 190.671875 L 351.953125 191.300781 L 352.5625 191.941406 L 353.167969 192.59375 L 353.769531 193.261719 L 354.085938 193.617188 L 354.375 193.941406 L 354.984375 194.628906 L 355.585938 195.324219 L 356.191406 196.027344 L 356.800781 196.746094 L 357.402344 197.472656 L 358.007812 198.207031 L 358.617188 198.953125 L 359.21875 199.710938 L 359.824219 200.476562 L 360.429688 201.253906 L 361.035156 202.039062 L 361.640625 202.835938 L 362.238281 203.644531 L 362.847656 204.464844 L 363.453125 205.292969 L 364.054688 206.128906 L 364.664062 206.976562 L 365.269531 207.835938 L 365.871094 208.703125 L 366.480469 209.582031 L 367.085938 210.464844 L 367.6875 211.359375 L 368.296875 212.265625 L 368.902344 213.175781 L 369.503906 214.089844 L 369.539062 214.136719 L 370.113281 215.039062 L 370.71875 215.992188 L 371.320312 216.957031 L 371.925781 217.929688 L 372.53125 218.910156 L 373.136719 219.902344 L 373.742188 220.902344 L 374.347656 221.914062 Z M 374.34375 221.925781 " fill-opacity="1" fill-rule="evenodd"/><g clip-path="url(#8d2ffdcc97)"><path fill="#128cba" d="M 85.226562 212.289062 L 84.167969 211.792969 L 85.226562 211.472656 L 86.289062 211.15625 L 87.351562 210.832031 L 87.355469 210.832031 L 88.414062 210.546875 L 90.539062 209.96875 L 91.171875 209.800781 C 91.308594 209.753906 91.453125 209.710938 91.601562 209.664062 C 91.949219 209.550781 92.300781 209.414062 92.664062 209.277344 C 93.011719 209.140625 93.363281 208.996094 93.722656 208.847656 L 94.785156 208.417969 C 95.132812 208.277344 95.488281 208.136719 95.847656 208 L 96.191406 207.875 L 96.90625 207.589844 L 97.96875 207.171875 L 99.027344 206.753906 L 99.09375 206.726562 L 100.089844 206.230469 L 101.152344 205.703125 L 102.210938 205.175781 L 102.28125 205.140625 L 103.273438 204.652344 L 105.398438 203.605469 L 105.71875 203.449219 L 106.460938 203.007812 L 107.519531 202.382812 L 108.582031 201.757812 L 109.367188 201.296875 L 109.644531 201.136719 C 110 200.933594 110.355469 200.722656 110.710938 200.507812 C 111.0625 200.296875 111.417969 200.078125 111.773438 199.863281 C 112.121094 199.648438 112.480469 199.425781 112.832031 199.199219 C 113.183594 198.976562 113.539062 198.75 113.894531 198.519531 C 114.246094 198.292969 114.601562 198.058594 114.957031 197.828125 L 116.015625 197.125 L 117.078125 196.410156 L 118.136719 195.6875 L 119.199219 194.953125 L 120.257812 194.21875 L 121.320312 193.472656 L 122.382812 192.722656 L 123.441406 191.964844 L 124.503906 191.207031 L 125.5625 190.449219 L 126.082031 190.078125 L 126.625 189.695312 L 127.691406 188.9375 L 128.75 188.183594 L 129.8125 187.429688 L 130.871094 186.675781 L 131.933594 185.929688 L 132.996094 185.1875 L 134.058594 184.449219 L 135.121094 183.722656 L 136.183594 183 L 137.242188 182.296875 L 138.304688 181.601562 L 139.363281 180.921875 C 139.71875 180.699219 140.070312 180.480469 140.425781 180.257812 C 140.777344 180.039062 141.132812 179.820312 141.484375 179.609375 C 141.839844 179.394531 142.195312 179.183594 142.550781 178.976562 C 142.902344 178.769531 143.257812 178.566406 143.613281 178.359375 C 143.964844 178.160156 144.320312 177.960938 144.671875 177.761719 C 145.027344 177.566406 145.378906 177.375 145.734375 177.1875 C 146.082031 177 146.441406 176.8125 146.796875 176.628906 L 146.800781 176.628906 C 147.152344 176.445312 147.507812 176.265625 147.859375 176.085938 C 148.214844 175.914062 148.566406 175.742188 148.921875 175.574219 C 149.273438 175.402344 149.628906 175.238281 149.980469 175.082031 C 150.335938 174.917969 150.6875 174.761719 151.042969 174.609375 C 151.398438 174.457031 151.75 174.308594 152.105469 174.160156 C 152.457031 174.015625 152.8125 173.871094 153.167969 173.730469 C 153.523438 173.597656 153.875 173.460938 154.230469 173.332031 C 154.582031 173.203125 154.9375 173.078125 155.289062 172.957031 C 155.644531 172.832031 156 172.714844 156.351562 172.605469 C 156.707031 172.492188 157.058594 172.382812 157.414062 172.285156 C 157.765625 172.179688 158.121094 172.078125 158.472656 171.984375 C 158.828125 171.886719 159.179688 171.796875 159.535156 171.707031 C 159.886719 171.621094 160.242188 171.539062 160.59375 171.460938 C 160.949219 171.382812 161.300781 171.308594 161.65625 171.238281 C 162.011719 171.167969 162.363281 171.105469 162.71875 171.046875 C 163.070312 170.988281 163.425781 170.929688 163.777344 170.882812 C 164.132812 170.832031 164.484375 170.789062 164.839844 170.75 C 165.191406 170.703125 165.546875 170.667969 165.898438 170.640625 C 166.253906 170.609375 166.605469 170.582031 166.960938 170.5625 C 167.3125 170.539062 167.667969 170.523438 168.023438 170.507812 C 168.375 170.5 168.730469 170.492188 169.082031 170.492188 C 169.4375 170.492188 169.789062 170.492188 170.144531 170.5 C 170.496094 170.507812 170.851562 170.523438 171.203125 170.542969 C 171.558594 170.566406 171.910156 170.585938 172.265625 170.617188 L 172.773438 170.660156 C 172.960938 170.660156 173.144531 170.667969 173.332031 170.675781 C 173.683594 170.691406 174.039062 170.71875 174.390625 170.753906 C 174.746094 170.789062 175.097656 170.832031 175.453125 170.886719 C 175.804688 170.945312 176.160156 171.003906 176.511719 171.074219 C 176.867188 171.144531 177.21875 171.222656 177.574219 171.308594 C 177.925781 171.390625 178.28125 171.480469 178.636719 171.578125 C 178.988281 171.671875 179.34375 171.773438 179.695312 171.878906 L 179.816406 171.914062 L 180.761719 172.175781 L 181.820312 172.476562 L 182.882812 172.773438 L 183.371094 172.90625 L 183.949219 173.167969 L 185.007812 173.65625 L 186.070312 174.148438 L 186.859375 174.507812 L 187.128906 174.636719 L 188.191406 175.136719 L 189.253906 175.632812 L 190.3125 176.136719 L 190.371094 176.167969 L 191.253906 176.589844 L 191.375 176.660156 L 192.238281 177.164062 L 192.433594 177.28125 L 193.496094 177.917969 L 193.777344 178.089844 L 194.558594 178.578125 L 195.617188 179.234375 L 196.683594 179.886719 C 197.035156 180.109375 197.386719 180.332031 197.742188 180.558594 C 198.09375 180.785156 198.445312 181.015625 198.804688 181.257812 C 199.152344 181.492188 199.507812 181.734375 199.867188 181.988281 L 200.003906 182.089844 L 200.925781 182.753906 L 201.988281 183.515625 L 203.054688 184.28125 L 204.113281 185.042969 L 205.175781 185.808594 L 206.234375 186.566406 L 206.566406 186.804688 L 207.300781 187.367188 L 208.367188 188.1875 L 209.425781 189.011719 L 210.488281 189.851562 L 211.546875 190.703125 C 211.902344 190.984375 212.257812 191.277344 212.609375 191.570312 L 212.863281 191.777344 L 213.671875 192.472656 L 214.734375 193.378906 L 215.796875 194.292969 L 216.859375 195.203125 L 217.917969 196.109375 L 218.980469 197.023438 L 220.039062 197.933594 L 221.105469 198.839844 L 222.167969 199.753906 L 223.226562 200.664062 L 224.289062 201.578125 L 225.074219 202.246094 L 225.355469 202.496094 L 226.414062 203.449219 L 227.476562 204.394531 L 228.535156 205.335938 L 229.597656 206.269531 L 230.65625 207.195312 L 231.71875 208.109375 L 232.78125 209.019531 L 233.839844 209.917969 L 234.902344 210.800781 L 235.960938 211.675781 C 236.320312 211.960938 236.675781 212.25 237.023438 212.535156 C 237.382812 212.816406 237.734375 213.101562 238.085938 213.378906 C 238.441406 213.660156 238.792969 213.933594 239.144531 214.210938 C 239.503906 214.484375 239.851562 214.753906 240.207031 215.019531 C 240.5625 215.285156 240.917969 215.554688 241.265625 215.816406 C 241.621094 216.078125 241.980469 216.332031 242.328125 216.589844 C 242.6875 216.84375 243.039062 217.097656 243.390625 217.34375 C 243.746094 217.59375 244.101562 217.839844 244.449219 218.078125 C 244.808594 218.320312 245.15625 218.554688 245.511719 218.785156 C 245.863281 219.019531 246.21875 219.246094 246.570312 219.46875 C 246.925781 219.695312 247.28125 219.914062 247.632812 220.132812 L 247.832031 220.253906 C 248.121094 220.417969 248.410156 220.589844 248.691406 220.765625 C 249.046875 220.980469 249.40625 221.199219 249.753906 221.398438 C 250.019531 221.550781 250.285156 221.699219 250.546875 221.828125 L 250.816406 221.945312 L 251.875 222.40625 L 252.9375 222.867188 L 253.238281 223 C 253.492188 223.144531 253.746094 223.273438 254.003906 223.390625 C 254.359375 223.558594 254.714844 223.703125 255.0625 223.832031 C 255.417969 223.957031 255.769531 224.078125 256.125 224.1875 C 256.476562 224.292969 256.832031 224.394531 257.183594 224.5 C 257.539062 224.605469 257.890625 224.710938 258.246094 224.824219 L 258.558594 224.921875 C 258.808594 225.019531 259.058594 225.101562 259.304688 225.167969 C 259.660156 225.261719 260.015625 225.332031 260.367188 225.386719 C 260.648438 225.425781 260.925781 225.449219 261.207031 225.464844 L 261.429688 225.496094 L 262.488281 225.621094 L 263.550781 225.746094 L 263.84375 225.78125 C 264.101562 225.8125 264.359375 225.835938 264.617188 225.84375 C 264.96875 225.855469 265.324219 225.855469 265.675781 225.84375 C 266.03125 225.835938 266.382812 225.816406 266.738281 225.789062 C 267.089844 225.769531 267.445312 225.742188 267.796875 225.726562 C 268.152344 225.707031 268.503906 225.695312 268.859375 225.695312 L 269.101562 225.695312 C 269.378906 225.660156 269.648438 225.625 269.917969 225.582031 C 270.277344 225.523438 270.632812 225.46875 270.980469 225.402344 C 271.339844 225.335938 271.691406 225.265625 272.046875 225.1875 C 272.398438 225.113281 272.753906 225.03125 273.105469 224.945312 C 273.460938 224.855469 273.8125 224.761719 274.167969 224.664062 C 274.519531 224.570312 274.875 224.464844 275.230469 224.355469 C 275.582031 224.246094 275.9375 224.128906 276.289062 224.011719 C 276.644531 223.890625 276.996094 223.765625 277.351562 223.636719 C 277.707031 223.503906 278.0625 223.367188 278.414062 223.226562 C 278.769531 223.082031 279.121094 222.9375 279.476562 222.785156 L 279.550781 222.753906 C 279.886719 222.613281 280.210938 222.496094 280.539062 222.378906 C 280.886719 222.253906 281.242188 222.121094 281.597656 221.964844 C 281.78125 221.886719 281.96875 221.796875 282.160156 221.695312 L 282.660156 221.445312 L 283.71875 220.910156 L 284.78125 220.371094 L 285 220.265625 L 286.90625 219.3125 L 287.96875 218.785156 L 289.027344 218.257812 L 290.089844 217.726562 L 290.550781 217.492188 L 291.152344 217.203125 L 293.277344 216.164062 L 294.335938 215.644531 L 295.402344 215.125 L 296.464844 214.609375 L 298.589844 213.585938 L 299.652344 213.078125 L 300.710938 212.582031 L 301.777344 212.085938 L 302.839844 211.597656 L 303.902344 211.113281 L 304.964844 210.640625 L 306.023438 210.175781 L 307.085938 209.71875 C 307.441406 209.570312 307.796875 209.417969 308.152344 209.277344 L 309.210938 208.84375 L 310.277344 208.421875 C 310.632812 208.28125 310.984375 208.140625 311.332031 208.011719 L 311.601562 207.910156 L 312.398438 207.617188 C 312.757812 207.492188 313.109375 207.371094 313.460938 207.246094 C 313.8125 207.125 314.171875 207.007812 314.523438 206.894531 C 314.878906 206.78125 315.238281 206.667969 315.585938 206.5625 C 315.941406 206.453125 316.292969 206.351562 316.648438 206.253906 C 317.003906 206.152344 317.359375 206.0625 317.707031 205.96875 C 318.066406 205.878906 318.417969 205.789062 318.773438 205.707031 C 319.132812 205.625 319.484375 205.546875 319.835938 205.472656 C 320.191406 205.398438 320.546875 205.332031 320.898438 205.265625 C 321.253906 205.203125 321.609375 205.144531 321.960938 205.09375 C 322.3125 205.039062 322.667969 204.992188 323.019531 204.949219 C 323.378906 204.90625 323.734375 204.871094 324.082031 204.839844 C 324.441406 204.808594 324.792969 204.78125 325.148438 204.765625 C 325.503906 204.746094 325.859375 204.734375 326.207031 204.730469 C 326.566406 204.722656 326.917969 204.730469 327.273438 204.734375 C 327.632812 204.742188 327.984375 204.761719 328.335938 204.785156 C 328.691406 204.8125 329.046875 204.84375 329.394531 204.886719 C 329.75 204.925781 330.105469 204.980469 330.457031 205.035156 L 330.910156 205.113281 C 331.117188 205.148438 331.320312 205.1875 331.519531 205.226562 C 331.878906 205.296875 332.234375 205.378906 332.582031 205.46875 C 332.941406 205.558594 333.296875 205.660156 333.648438 205.769531 C 334.003906 205.878906 334.359375 205.996094 334.707031 206.121094 C 335.066406 206.253906 335.421875 206.390625 335.769531 206.535156 C 336.132812 206.683594 336.480469 206.839844 336.832031 207.007812 C 337.191406 207.175781 337.546875 207.351562 337.894531 207.535156 C 338.257812 207.722656 338.605469 207.921875 338.957031 208.125 C 339.320312 208.332031 339.671875 208.550781 340.023438 208.773438 C 340.382812 209.003906 340.734375 209.242188 341.082031 209.480469 C 341.445312 209.730469 341.792969 209.988281 342.144531 210.25 C 342.503906 210.519531 342.863281 210.796875 343.203125 211.078125 C 343.570312 211.371094 343.925781 211.671875 344.269531 211.96875 C 344.632812 212.28125 344.980469 212.59375 345.320312 212.910156 L 345.335938 212.917969 L 347.460938 214.949219 L 347.890625 215.359375 L 348.515625 216.097656 L 349.578125 217.335938 L 350.03125 217.863281 C 350.238281 218.101562 350.445312 218.335938 350.644531 218.566406 C 351.019531 219.007812 351.371094 219.433594 351.703125 219.847656 C 352.085938 220.324219 352.4375 220.78125 352.765625 221.222656 C 352.957031 221.480469 353.140625 221.734375 353.320312 221.976562 L 353.832031 222.679688 L 354.890625 224.15625 L 355.953125 225.628906 L 354.890625 225.148438 L 353.832031 224.667969 L 352.816406 224.214844 L 352.765625 224.191406 C 352.4375 224.019531 352.085938 223.84375 351.703125 223.671875 C 351.371094 223.519531 351.015625 223.367188 350.644531 223.21875 C 350.308594 223.082031 349.949219 222.945312 349.578125 222.820312 L 349.09375 222.65625 L 348.515625 222.433594 C 348.175781 222.304688 347.820312 222.175781 347.457031 222.050781 C 347.113281 221.933594 346.753906 221.816406 346.394531 221.707031 C 346.046875 221.601562 345.691406 221.5 345.332031 221.402344 C 344.980469 221.3125 344.628906 221.222656 344.269531 221.140625 L 344.089844 221.101562 C 343.800781 221.03125 343.503906 220.96875 343.203125 220.910156 C 342.855469 220.839844 342.5 220.769531 342.144531 220.707031 C 341.792969 220.648438 341.441406 220.59375 341.082031 220.546875 C 340.730469 220.503906 340.375 220.464844 340.023438 220.433594 C 339.671875 220.402344 339.3125 220.382812 338.957031 220.367188 C 338.605469 220.355469 338.25 220.347656 337.894531 220.351562 C 337.546875 220.355469 337.1875 220.363281 336.832031 220.386719 C 336.480469 220.40625 336.128906 220.433594 335.769531 220.472656 C 335.421875 220.511719 335.066406 220.5625 334.707031 220.617188 C 334.355469 220.675781 334 220.742188 333.648438 220.816406 C 333.292969 220.894531 332.941406 220.980469 332.582031 221.074219 C 332.230469 221.171875 331.875 221.28125 331.519531 221.398438 L 331.132812 221.527344 C 330.910156 221.609375 330.6875 221.6875 330.457031 221.769531 C 330.105469 221.898438 329.75 222.039062 329.394531 222.1875 C 329.042969 222.335938 328.691406 222.492188 328.335938 222.664062 C 327.980469 222.828125 327.628906 223 327.273438 223.183594 C 326.917969 223.359375 326.566406 223.546875 326.207031 223.746094 C 325.855469 223.9375 325.5 224.140625 325.148438 224.351562 C 324.792969 224.554688 324.441406 224.773438 324.082031 224.996094 C 323.734375 225.214844 323.375 225.441406 323.019531 225.671875 C 322.671875 225.902344 322.3125 226.144531 321.960938 226.382812 C 321.605469 226.625 321.253906 226.871094 320.898438 227.125 C 320.546875 227.378906 320.191406 227.632812 319.835938 227.894531 C 319.480469 228.152344 319.125 228.417969 318.773438 228.683594 C 318.417969 228.949219 318.066406 229.21875 317.707031 229.5 C 317.359375 229.769531 317 230.046875 316.648438 230.332031 L 315.585938 231.183594 L 315.144531 231.539062 L 314.523438 232.042969 L 313.460938 232.914062 L 312.398438 233.792969 L 311.332031 234.675781 L 310.277344 235.570312 L 309.210938 236.46875 L 308.152344 237.367188 L 307.085938 238.269531 L 306.023438 239.175781 L 304.964844 240.082031 L 301.777344 242.789062 L 300.710938 243.6875 L 299.652344 244.582031 L 298.589844 245.472656 L 297.527344 246.359375 L 296.464844 247.234375 L 295.695312 247.863281 L 295.402344 248.113281 C 295.050781 248.410156 294.695312 248.707031 294.335938 248.992188 C 293.984375 249.285156 293.628906 249.570312 293.277344 249.851562 L 292.214844 250.699219 L 291.152344 251.535156 L 290.347656 252.167969 L 290.089844 252.375 L 289.027344 253.210938 L 287.96875 254.050781 L 287.628906 254.316406 C 287.390625 254.503906 287.152344 254.6875 286.902344 254.863281 C 286.554688 255.113281 286.199219 255.347656 285.835938 255.589844 C 285.484375 255.824219 285.125 256.054688 284.777344 256.296875 L 284.550781 256.453125 C 284.269531 256.65625 283.996094 256.859375 283.714844 257.050781 C 283.367188 257.300781 283.007812 257.535156 282.65625 257.769531 C 282.300781 257.996094 281.949219 258.222656 281.59375 258.4375 C 281.242188 258.652344 280.886719 258.855469 280.53125 259.0625 C 280.179688 259.261719 279.824219 259.457031 279.472656 259.644531 C 279.117188 259.832031 278.765625 260.015625 278.410156 260.195312 C 278.058594 260.375 277.703125 260.542969 277.347656 260.710938 C 276.996094 260.875 276.636719 261.039062 276.285156 261.195312 C 275.929688 261.351562 275.578125 261.503906 275.222656 261.652344 C 274.871094 261.800781 274.515625 261.945312 274.164062 262.085938 C 273.808594 262.222656 273.457031 262.363281 273.101562 262.496094 C 272.75 262.628906 272.394531 262.757812 272.042969 262.886719 L 271.269531 263.15625 L 270.976562 263.25 C 270.621094 263.359375 270.269531 263.464844 269.914062 263.558594 C 269.5625 263.65625 269.207031 263.746094 268.855469 263.828125 C 268.5 263.914062 268.148438 263.992188 267.792969 264.066406 C 267.441406 264.136719 267.085938 264.203125 266.734375 264.261719 C 266.378906 264.324219 266.023438 264.378906 265.671875 264.425781 C 265.316406 264.476562 264.964844 264.519531 264.609375 264.558594 C 264.257812 264.597656 263.902344 264.628906 263.550781 264.660156 C 263.195312 264.683594 262.84375 264.707031 262.488281 264.722656 C 262.136719 264.742188 261.78125 264.75 261.429688 264.753906 C 261.074219 264.761719 260.722656 264.761719 260.367188 264.753906 C 260.011719 264.75 259.660156 264.738281 259.304688 264.722656 C 258.953125 264.710938 258.597656 264.6875 258.246094 264.664062 C 257.890625 264.636719 257.539062 264.605469 257.183594 264.570312 C 256.832031 264.535156 256.476562 264.492188 256.125 264.449219 C 255.769531 264.402344 255.417969 264.347656 255.0625 264.292969 C 254.710938 264.234375 254.355469 264.175781 254 264.109375 C 253.648438 264.042969 253.292969 263.96875 252.941406 263.894531 C 252.585938 263.816406 252.230469 263.738281 251.878906 263.652344 C 251.527344 263.5625 251.171875 263.472656 250.820312 263.375 C 250.464844 263.28125 250.113281 263.175781 249.757812 263.070312 C 249.398438 262.960938 249.050781 262.847656 248.699219 262.734375 C 248.339844 262.617188 247.984375 262.496094 247.636719 262.367188 C 247.28125 262.242188 246.925781 262.105469 246.574219 261.964844 C 246.21875 261.828125 245.863281 261.683594 245.515625 261.535156 C 245.160156 261.386719 244.804688 261.230469 244.453125 261.074219 C 244.097656 260.910156 243.746094 260.746094 243.394531 260.574219 C 243.035156 260.40625 242.679688 260.226562 242.332031 260.042969 L 242.273438 260.011719 C 241.9375 259.847656 241.601562 259.679688 241.269531 259.511719 C 240.914062 259.332031 240.558594 259.144531 240.210938 258.957031 C 239.855469 258.765625 239.5 258.574219 239.148438 258.371094 C 238.792969 258.171875 238.441406 257.972656 238.089844 257.765625 C 237.734375 257.5625 237.375 257.347656 237.027344 257.132812 C 236.675781 256.917969 236.320312 256.703125 235.96875 256.476562 C 235.609375 256.253906 235.253906 256.027344 234.90625 255.792969 C 234.546875 255.558594 234.195312 255.328125 233.84375 255.085938 C 233.492188 254.847656 233.132812 254.609375 232.785156 254.363281 C 232.429688 254.117188 232.074219 253.867188 231.722656 253.617188 C 231.363281 253.363281 231.015625 253.105469 230.664062 252.851562 C 230.308594 252.589844 229.957031 252.328125 229.601562 252.066406 C 229.242188 251.796875 228.894531 251.53125 228.539062 251.261719 C 228.1875 250.992188 227.828125 250.714844 227.480469 250.441406 C 227.125 250.164062 226.773438 249.886719 226.417969 249.605469 L 225.359375 248.753906 L 224.296875 247.890625 L 223.234375 247.011719 L 222.175781 246.128906 L 221.113281 245.234375 L 220.050781 244.332031 L 217.925781 242.511719 L 216.867188 241.59375 L 216.179688 241 L 215.804688 240.667969 L 214.746094 239.71875 L 213.679688 238.773438 L 212.617188 237.828125 L 211.558594 236.878906 L 210.496094 235.933594 L 209.4375 234.988281 L 208.375 234.039062 L 207.308594 233.09375 L 206.25 232.148438 L 205.1875 231.199219 L 204.328125 230.4375 L 204.121094 230.265625 L 203.0625 229.371094 L 201.996094 228.46875 L 200.933594 227.558594 L 199.875 226.636719 L 198.8125 225.703125 L 198.539062 225.464844 L 197.75 224.816406 L 196.6875 223.949219 L 195.621094 223.082031 L 194.5625 222.210938 L 193.5 221.339844 L 192.964844 220.902344 C 192.792969 220.757812 192.617188 220.617188 192.441406 220.472656 C 192.09375 220.199219 191.738281 219.921875 191.378906 219.652344 C 191.03125 219.390625 190.671875 219.132812 190.316406 218.871094 L 189.257812 218.109375 C 188.898438 217.855469 188.546875 217.597656 188.195312 217.339844 C 187.839844 217.078125 187.480469 216.8125 187.136719 216.546875 L 187.011719 216.457031 L 186.074219 215.746094 L 185.515625 215.320312 L 185.140625 215.035156 L 185.011719 214.9375 L 184.984375 214.914062 L 184.320312 214.511719 L 183.953125 214.285156 L 182.890625 213.625 L 181.832031 212.964844 L 181.683594 212.875 L 180.769531 212.296875 L 179.707031 211.625 L 179.054688 211.210938 L 178.648438 211.046875 L 177.585938 210.605469 L 176.527344 210.164062 L 176.398438 210.113281 L 175.464844 209.695312 L 174.40625 209.214844 L 173.761719 208.925781 C 173.621094 208.855469 173.480469 208.800781 173.339844 208.746094 C 172.984375 208.617188 172.632812 208.523438 172.277344 208.441406 C 171.921875 208.359375 171.566406 208.28125 171.21875 208.171875 L 171.109375 208.140625 C 170.789062 208.050781 170.476562 207.960938 170.152344 207.882812 C 169.796875 207.792969 169.445312 207.703125 169.089844 207.625 C 168.738281 207.546875 168.382812 207.472656 168.03125 207.402344 C 167.675781 207.335938 167.324219 207.273438 166.96875 207.214844 C 166.617188 207.160156 166.261719 207.105469 165.910156 207.058594 C 165.554688 207.011719 165.203125 206.972656 164.847656 206.933594 C 164.492188 206.894531 164.140625 206.863281 163.785156 206.835938 C 163.433594 206.8125 163.078125 206.789062 162.726562 206.769531 C 162.371094 206.753906 162.019531 206.742188 161.664062 206.730469 C 161.3125 206.722656 160.957031 206.71875 160.605469 206.71875 C 160.25 206.71875 159.898438 206.726562 159.542969 206.738281 C 159.191406 206.746094 158.835938 206.757812 158.480469 206.78125 C 158.128906 206.796875 157.773438 206.820312 157.421875 206.84375 C 157.066406 206.871094 156.714844 206.902344 156.359375 206.9375 C 156.007812 206.972656 155.652344 207.011719 155.300781 207.050781 C 154.945312 207.09375 154.59375 207.136719 154.238281 207.1875 C 153.886719 207.238281 153.53125 207.289062 153.179688 207.347656 C 152.820312 207.402344 152.464844 207.464844 152.113281 207.527344 C 151.757812 207.589844 151.40625 207.65625 151.050781 207.726562 C 150.699219 207.796875 150.34375 207.871094 149.992188 207.945312 L 149.847656 207.976562 L 148.929688 208.175781 C 148.578125 208.253906 148.222656 208.332031 147.867188 208.417969 C 147.515625 208.5 147.160156 208.585938 146.808594 208.671875 L 145.746094 208.945312 L 144.6875 209.222656 L 143.625 209.515625 L 142.566406 209.816406 L 141.5 210.125 L 140.4375 210.441406 L 139.378906 210.757812 L 137.253906 211.414062 L 136.195312 211.746094 L 135.132812 212.074219 L 134.074219 212.402344 L 133.007812 212.730469 L 131.945312 213.054688 L 130.886719 213.371094 L 129.824219 213.6875 L 129.152344 213.878906 L 128.765625 213.988281 L 127.703125 214.289062 L 126.636719 214.578125 L 125.578125 214.859375 L 124.515625 215.132812 L 123.457031 215.394531 L 122.394531 215.648438 L 121.332031 215.886719 C 120.976562 215.96875 120.621094 216.046875 120.273438 216.121094 C 119.914062 216.195312 119.5625 216.269531 119.210938 216.335938 C 118.855469 216.40625 118.5 216.472656 118.152344 216.539062 C 117.792969 216.605469 117.4375 216.664062 117.089844 216.726562 C 116.730469 216.789062 116.378906 216.84375 116.027344 216.894531 C 115.671875 216.953125 115.316406 217 114.96875 217.050781 C 114.609375 217.097656 114.257812 217.140625 113.90625 217.179688 C 113.550781 217.222656 113.195312 217.257812 112.847656 217.292969 C 112.488281 217.328125 112.136719 217.359375 111.785156 217.378906 C 111.425781 217.40625 111.074219 217.429688 110.726562 217.445312 L 110.710938 217.445312 L 109.660156 217.492188 L 108.597656 217.546875 L 107.539062 217.597656 L 106.683594 217.640625 L 106.476562 217.636719 C 106.117188 217.628906 105.765625 217.613281 105.414062 217.59375 C 105.058594 217.574219 104.703125 217.542969 104.355469 217.515625 L 103.289062 217.425781 L 102.917969 217.394531 L 102.230469 217.332031 L 100.105469 217.144531 L 99.472656 217.089844 L 99.042969 217.019531 C 98.683594 216.953125 98.332031 216.875 97.980469 216.792969 L 96.921875 216.53125 C 96.714844 216.476562 96.515625 216.429688 96.3125 216.386719 L 95.859375 216.273438 L 94.796875 216.015625 C 94.4375 215.929688 94.078125 215.84375 93.738281 215.761719 C 93.375 215.671875 93.015625 215.578125 92.675781 215.476562 C 92.308594 215.371094 91.957031 215.257812 91.617188 215.132812 C 91.433594 215.0625 91.253906 214.996094 91.078125 214.914062 L 90.550781 214.6875 L 89.488281 214.226562 L 88.429688 213.765625 L 87.367188 213.300781 L 87.316406 213.28125 L 86.308594 212.808594 L 85.246094 212.3125 Z M 85.226562 212.289062 " fill-opacity="1" fill-rule="evenodd"/></g><path fill="#00b0f0" d="M 0.664062 184.265625 C 0.265625 183.648438 0.0585938 183.3125 0.0507812 183.292969 C 0.0585938 183.296875 0.292969 183.421875 0.722656 183.660156 L 1.390625 184.035156 L 2.0625 184.417969 L 2.730469 184.8125 L 3.398438 185.203125 L 4.066406 185.605469 L 4.734375 186.011719 L 5.402344 186.421875 L 6.070312 186.835938 L 6.738281 187.253906 L 7.40625 187.679688 L 7.757812 187.902344 L 8.074219 188.109375 L 8.742188 188.542969 L 9.410156 188.96875 L 10.078125 189.402344 L 10.746094 189.832031 L 11.414062 190.265625 L 12.078125 190.707031 L 12.742188 191.144531 L 13.40625 191.59375 L 14.734375 192.507812 L 15.398438 192.972656 L 16.0625 193.449219 L 16.421875 193.707031 L 16.722656 193.929688 L 17.386719 194.410156 L 18.050781 194.875 L 18.714844 195.332031 L 19.378906 195.785156 L 20.042969 196.226562 L 20.710938 196.667969 L 21.375 197.101562 L 22.042969 197.53125 L 22.710938 197.964844 L 23.378906 198.390625 L 24.042969 198.824219 L 24.710938 199.253906 L 25.371094 199.6875 L 26.039062 200.125 L 26.703125 200.5625 L 27.367188 201.007812 L 27.574219 201.148438 L 28.03125 201.4375 L 28.699219 201.863281 L 29.367188 202.296875 L 30.03125 202.738281 L 31.359375 203.636719 L 32.023438 204.089844 L 32.6875 204.546875 L 33.347656 205.003906 L 34.011719 205.464844 L 35.339844 206.378906 L 36.667969 207.285156 L 37.332031 207.734375 L 37.996094 208.175781 L 38.664062 208.613281 L 39.332031 209.042969 L 40 209.46875 L 40.644531 209.875 L 40.660156 209.886719 L 41.335938 210.273438 L 43.339844 211.46875 L 44.007812 211.875 L 46.011719 213.105469 L 49.351562 215.175781 L 50.019531 215.585938 L 50.6875 215.992188 L 51.359375 216.398438 L 52.027344 216.800781 L 52.695312 217.199219 L 54.03125 217.988281 L 54.703125 218.371094 L 55.214844 218.664062 L 55.375 218.742188 L 56.050781 219.0625 L 56.726562 219.398438 L 57.40625 219.746094 L 58.078125 220.101562 L 58.75 220.460938 L 59.421875 220.828125 L 60.09375 221.199219 L 60.765625 221.566406 L 61.4375 221.9375 L 62.113281 222.308594 L 62.785156 222.679688 L 63.457031 223.042969 L 64.132812 223.40625 L 64.804688 223.761719 L 65.480469 224.105469 L 66.160156 224.441406 L 66.835938 224.769531 L 67.511719 225.089844 L 68.191406 225.390625 L 68.871094 225.675781 L 69.554688 225.949219 L 70.234375 226.199219 L 70.773438 226.386719 L 70.921875 226.445312 L 71.601562 226.714844 L 72.285156 226.996094 L 72.964844 227.277344 L 73.644531 227.5625 L 74.328125 227.84375 L 75.6875 228.414062 L 76.371094 228.691406 L 77.050781 228.960938 L 77.730469 229.222656 L 78.417969 229.480469 L 78.757812 229.605469 L 79.109375 229.695312 L 79.796875 229.878906 L 80.488281 230.0625 L 81.175781 230.246094 L 81.867188 230.429688 L 82.554688 230.609375 L 83.9375 230.976562 L 84.625 231.160156 L 85.316406 231.34375 L 86.003906 231.527344 L 86.695312 231.710938 L 86.796875 231.742188 L 87.390625 231.851562 L 88.089844 231.976562 L 88.785156 232.097656 L 89.484375 232.214844 L 90.183594 232.324219 L 90.882812 232.429688 L 91.582031 232.53125 L 92.277344 232.621094 L 92.976562 232.710938 L 93.679688 232.789062 L 94.378906 232.859375 L 95.082031 232.921875 L 95.785156 232.980469 L 96.488281 233.023438 L 97.195312 233.0625 L 97.902344 233.089844 L 98.609375 233.105469 L 99.316406 233.113281 L 100.023438 233.105469 L 100.734375 233.089844 L 101.449219 233.0625 L 102.160156 233.023438 L 102.8125 232.972656 L 102.875 232.96875 L 103.585938 232.925781 L 104.296875 232.878906 L 105.015625 232.824219 L 105.726562 232.757812 L 106.441406 232.679688 L 107.15625 232.589844 L 107.878906 232.5 L 108.597656 232.394531 L 109.320312 232.28125 L 110.039062 232.160156 L 110.757812 232.027344 L 111.480469 231.894531 L 112.203125 231.75 L 112.925781 231.597656 L 113.648438 231.441406 L 114.375 231.269531 L 115.097656 231.101562 L 115.824219 230.921875 L 116.546875 230.738281 L 117.277344 230.546875 L 118.003906 230.347656 L 118.519531 230.207031 L 118.730469 230.148438 L 119.457031 229.949219 L 120.183594 229.746094 L 120.914062 229.542969 L 121.644531 229.332031 L 122.371094 229.121094 L 123.101562 228.910156 L 123.832031 228.695312 L 124.558594 228.476562 L 125.289062 228.261719 L 126.019531 228.042969 L 126.746094 227.820312 L 129.667969 226.929688 L 130.402344 226.707031 L 131.128906 226.484375 L 131.859375 226.261719 L 132.589844 226.042969 L 133.316406 225.824219 L 133.742188 225.699219 L 134.046875 225.597656 L 134.78125 225.359375 L 135.515625 225.132812 L 136.242188 224.914062 L 136.972656 224.703125 L 137.703125 224.5 L 138.425781 224.308594 L 139.152344 224.121094 L 139.875 223.941406 L 140.601562 223.765625 L 141.324219 223.605469 L 142.050781 223.449219 L 142.773438 223.292969 L 143.496094 223.144531 L 144.214844 223 L 144.933594 222.859375 L 145.660156 222.730469 L 146.378906 222.597656 L 147.101562 222.472656 L 147.820312 222.34375 L 147.855469 222.339844 L 148.539062 222.25 L 149.257812 222.15625 L 149.972656 222.070312 L 150.691406 221.984375 L 151.40625 221.898438 L 152.121094 221.824219 L 152.835938 221.757812 L 153.554688 221.695312 L 154.265625 221.640625 L 154.976562 221.597656 L 155.6875 221.570312 L 156.398438 221.550781 L 157.109375 221.546875 L 157.816406 221.554688 L 158.523438 221.582031 L 159.226562 221.628906 L 159.925781 221.695312 L 160.027344 221.707031 L 160.628906 221.730469 L 161.339844 221.765625 L 162.046875 221.808594 L 162.75 221.855469 L 163.449219 221.914062 L 164.152344 221.976562 L 164.855469 222.058594 L 165.554688 222.148438 L 166.253906 222.253906 L 166.953125 222.378906 L 167.648438 222.527344 L 168.335938 222.699219 C 168.570312 222.757812 168.800781 222.824219 169.027344 222.894531 L 169.320312 222.992188 L 169.710938 223.09375 L 170.402344 223.28125 L 171.089844 223.476562 L 171.78125 223.671875 L 172.46875 223.871094 L 173.851562 224.285156 L 174.535156 224.5 L 175.222656 224.722656 L 175.90625 224.949219 L 176.59375 225.183594 C 177.042969 225.339844 177.277344 225.429688 177.277344 225.429688 C 177.277344 225.429688 177.023438 225.546875 176.535156 225.761719 L 175.796875 226.078125 L 175.058594 226.386719 L 174.320312 226.691406 L 173.582031 226.984375 L 172.847656 227.273438 L 172.113281 227.558594 L 171.375 227.835938 L 169.90625 228.375 L 169.382812 228.5625 L 169.175781 228.617188 C 168.933594 228.6875 168.691406 228.765625 168.441406 228.851562 C 168.199219 228.9375 167.957031 229.023438 167.707031 229.125 C 167.46875 229.214844 167.21875 229.320312 166.96875 229.425781 L 166.226562 229.746094 L 165.484375 230.085938 L 164 230.789062 L 163.257812 231.148438 L 162.515625 231.5 L 161.773438 231.847656 L 161.03125 232.179688 L 160.519531 232.402344 L 160.292969 232.496094 L 159.550781 232.8125 C 159.308594 232.921875 159.058594 233.035156 158.808594 233.15625 L 158.066406 233.515625 L 157.320312 233.898438 L 156.574219 234.292969 L 155.828125 234.699219 L 153.589844 235.941406 L 152.835938 236.355469 L 152.089844 236.765625 L 151.34375 237.167969 L 150.597656 237.558594 L 149.851562 237.941406 L 149.335938 238.195312 L 149.105469 238.335938 L 148.347656 238.789062 L 147.597656 239.242188 L 146.84375 239.699219 L 146.09375 240.152344 L 145.335938 240.605469 L 144.585938 241.054688 L 142.324219 242.414062 L 141.574219 242.867188 L 140.824219 243.324219 L 140.066406 243.78125 L 139.3125 244.234375 L 138.5625 244.6875 L 137.054688 245.59375 L 136.300781 246.054688 L 136.125 246.160156 L 135.550781 246.5 L 134.792969 246.949219 L 134.042969 247.402344 L 133.289062 247.859375 L 132.53125 248.316406 L 131.78125 248.777344 L 131.027344 249.234375 L 130.269531 249.6875 L 129.519531 250.136719 L 128.769531 250.582031 L 128.019531 251.019531 L 127.265625 251.449219 L 126.515625 251.871094 L 125.769531 252.289062 L 125.023438 252.6875 L 124.277344 253.082031 L 123.53125 253.460938 L 122.789062 253.832031 L 122.046875 254.1875 L 121.304688 254.535156 L 120.902344 254.710938 L 120.5625 254.878906 L 119.820312 255.234375 L 119.078125 255.585938 L 118.335938 255.925781 L 117.59375 256.257812 L 116.855469 256.574219 L 116.117188 256.875 L 115.378906 257.164062 L 114.644531 257.429688 L 113.910156 257.679688 L 113.183594 257.90625 L 112.472656 258.105469 L 112.457031 258.109375 L 111.722656 258.347656 L 110.261719 258.816406 L 109.527344 259.042969 L 108.800781 259.265625 L 108.070312 259.472656 L 107.34375 259.664062 L 106.621094 259.832031 L 105.894531 259.980469 C 105.65625 260.027344 105.421875 260.070312 105.175781 260.105469 C 104.9375 260.140625 104.699219 260.167969 104.457031 260.195312 C 104.21875 260.222656 103.980469 260.242188 103.742188 260.261719 L 103.585938 260.269531 L 103.023438 260.375 L 102.304688 260.492188 L 101.582031 260.59375 L 100.867188 260.679688 L 100.152344 260.75 L 99.4375 260.804688 L 98.726562 260.851562 L 98.015625 260.878906 L 97.304688 260.898438 L 96.597656 260.902344 L 95.890625 260.898438 L 95.183594 260.886719 L 94.476562 260.859375 L 93.769531 260.824219 L 93.066406 260.78125 L 91.660156 260.664062 L 90.957031 260.59375 L 90.253906 260.515625 L 88.855469 260.34375 L 88.15625 260.25 L 87.460938 260.148438 L 86.761719 260.042969 L 86.0625 259.933594 L 85.363281 259.820312 L 85.242188 259.800781 L 84.675781 259.632812 L 83.984375 259.433594 L 83.292969 259.230469 L 82.605469 259.03125 L 81.914062 258.824219 L 81.226562 258.625 L 80.535156 258.425781 L 79.84375 258.222656 L 79.15625 258.023438 L 78.464844 257.824219 L 77.777344 257.621094 L 76.394531 257.222656 L 76.171875 257.15625 L 75.710938 256.984375 L 75.027344 256.714844 L 74.34375 256.421875 L 73.667969 256.117188 L 72.992188 255.796875 L 72.3125 255.46875 L 70.960938 254.78125 L 70.289062 254.4375 L 69.613281 254.089844 L 68.933594 253.742188 L 68.257812 253.410156 L 67.582031 253.082031 L 67.433594 253.011719 L 66.90625 252.746094 L 66.234375 252.40625 L 65.554688 252.066406 L 64.878906 251.71875 L 63.527344 251.039062 L 63.132812 250.84375 L 62.851562 250.65625 L 62.191406 250.203125 L 61.527344 249.742188 L 60.199219 248.835938 L 59.535156 248.378906 L 59.023438 248.03125 L 58.871094 247.921875 L 57.542969 246.976562 L 56.882812 246.507812 L 56.21875 246.035156 L 55.554688 245.566406 L 54.226562 244.621094 L 53.5625 244.152344 L 52.898438 243.679688 L 52.234375 243.210938 L 51.570312 242.738281 L 51.007812 242.339844 L 50.910156 242.265625 L 50.25 241.761719 L 49.59375 241.242188 L 48.933594 240.714844 L 48.28125 240.171875 L 47.625 239.625 L 46.96875 239.0625 L 46.316406 238.488281 L 45.660156 237.910156 L 45.011719 237.324219 L 44.359375 236.734375 L 43.710938 236.132812 L 43.058594 235.53125 L 42.410156 234.925781 L 41.757812 234.316406 L 41.105469 233.703125 L 40.457031 233.089844 L 39.804688 232.476562 L 38.507812 231.257812 L 37.859375 230.652344 L 37.207031 230.046875 L 36.558594 229.457031 L 36.457031 229.363281 L 35.90625 228.863281 L 35.257812 228.25 L 34.609375 227.628906 L 33.964844 226.984375 L 33.320312 226.332031 L 32.675781 225.660156 L 32.035156 224.980469 L 31.394531 224.285156 L 30.75 223.578125 L 30.109375 222.867188 L 29.472656 222.144531 L 28.199219 220.683594 L 27.558594 219.949219 L 26.921875 219.210938 L 26.285156 218.480469 L 25.648438 217.746094 L 25.011719 217.019531 L 24.375 216.300781 L 24.015625 215.894531 L 23.734375 215.585938 L 23.09375 214.882812 L 22.453125 214.160156 L 21.816406 213.433594 L 21.175781 212.695312 L 20.542969 211.949219 L 19.910156 211.191406 L 19.277344 210.421875 L 18.644531 209.648438 L 18.011719 208.855469 L 17.382812 208.0625 L 16.753906 207.261719 L 16.125 206.449219 L 15.496094 205.625 L 14.875 204.796875 L 13.617188 203.109375 L 12.992188 202.253906 L 12.367188 201.394531 L 11.117188 199.652344 L 10.496094 198.777344 L 9.871094 197.894531 L 9.25 197.011719 L 8.625 196.132812 L 8.003906 195.25 L 7.382812 194.371094 L 6.757812 193.492188 L 6.347656 192.921875 L 6.132812 192.617188 L 5.511719 191.71875 L 4.894531 190.816406 L 4.273438 189.910156 L 3.652344 188.996094 L 3.03125 188.074219 L 2.414062 187.144531 L 1.796875 186.210938 L 1.183594 185.269531 L 0.566406 184.3125 Z M 0.664062 184.265625 " fill-opacity="1" fill-rule="evenodd"/><path fill="#f58733" d="M 117.984375 137.730469 C 117.984375 151.613281 123.679688 164.164062 132.859375 173.1875 L 132.9375 173.132812 L 134 172.453125 C 134.394531 172.195312 134.796875 171.953125 135.199219 171.703125 L 136.351562 171 L 137.523438 170.308594 L 138.6875 169.636719 L 139.863281 168.976562 L 141.050781 168.332031 L 142.234375 167.707031 L 143.464844 167.085938 L 144.660156 166.503906 L 145.890625 165.933594 L 147.109375 165.390625 L 148.363281 164.863281 L 149.597656 164.371094 L 150.851562 163.898438 C 151.269531 163.746094 151.6875 163.597656 152.113281 163.453125 L 153.378906 163.035156 C 153.800781 162.902344 154.230469 162.769531 154.65625 162.644531 C 155.082031 162.515625 155.507812 162.398438 155.9375 162.28125 C 156.363281 162.167969 156.796875 162.054688 157.226562 161.949219 C 157.652344 161.84375 158.085938 161.746094 158.515625 161.648438 C 158.949219 161.554688 159.386719 161.464844 159.824219 161.378906 C 160.257812 161.292969 160.695312 161.210938 161.136719 161.144531 C 161.574219 161.070312 162.015625 161 162.449219 160.9375 C 162.894531 160.871094 163.339844 160.816406 163.785156 160.769531 C 164.226562 160.714844 164.667969 160.671875 165.109375 160.632812 C 165.554688 160.59375 166 160.5625 166.449219 160.53125 C 166.898438 160.5 167.347656 160.484375 167.792969 160.464844 C 168.246094 160.453125 168.695312 160.445312 169.144531 160.441406 C 169.59375 160.441406 170.046875 160.445312 170.496094 160.453125 C 170.953125 160.464844 171.40625 160.484375 171.859375 160.511719 C 172.328125 160.535156 172.792969 160.566406 173.257812 160.605469 L 173.46875 160.625 L 173.875 160.632812 C 175.128906 160.6875 174.257812 160.625 175.507812 160.75 C 176.039062 160.800781 176.570312 160.871094 177.09375 160.949219 C 177.597656 161.03125 178.097656 161.117188 178.597656 161.21875 C 179.070312 161.308594 179.542969 161.414062 180.015625 161.527344 C 180.46875 161.632812 180.917969 161.75 181.367188 161.867188 C 181.816406 161.988281 182.265625 162.109375 182.71875 162.246094 L 182.746094 162.253906 L 186.972656 163.441406 L 188.269531 164.039062 L 191.289062 165.421875 L 191.542969 165.542969 L 192.609375 166.046875 L 194.839844 167.097656 L 196.117188 167.707031 L 196.582031 167.976562 L 197.546875 168.542969 L 199.164062 169.507812 L 200.007812 170.03125 L 201.054688 170.679688 L 202.125 171.335938 L 203.328125 172.101562 C 203.40625 172.152344 203.488281 172.207031 203.570312 172.257812 C 212.210938 163.316406 217.53125 151.136719 217.53125 137.722656 C 217.53125 110.261719 195.25 88 167.769531 88 C 140.285156 88 118.007812 110.261719 118.007812 137.722656 Z M 117.984375 137.730469 " fill-opacity="1" fill-rule="evenodd"/><path fill="#eda169" d="M 219.988281 163.484375 C 218.832031 165.820312 217.53125 168.0625 216.121094 170.152344 L 215.671875 170.816406 L 216.117188 170.207031 L 217.199219 171.109375 L 221.175781 171.503906 C 221.605469 171.546875 222.035156 171.609375 222.464844 171.683594 L 223.359375 171.847656 L 224.035156 171.988281 L 224.582031 172.09375 L 225.382812 172.257812 L 226.101562 172.414062 L 226.808594 172.582031 L 227.496094 172.75 L 228.199219 172.929688 L 228.867188 173.105469 L 229.546875 173.289062 L 229.820312 173.367188 L 229.960938 173.402344 L 230.734375 173.605469 L 231.503906 173.828125 L 232.296875 174.066406 L 232.992188 174.289062 L 233.660156 174.507812 L 234.285156 174.71875 L 234.917969 174.933594 L 236.71875 175.542969 L 237.910156 175.945312 L 238.628906 176.183594 L 239.316406 176.421875 L 239.976562 176.660156 L 240.628906 176.898438 L 241.253906 177.128906 L 241.929688 177.382812 L 243.175781 177.859375 L 244.414062 178.339844 L 247.40625 179.507812 L 248.578125 179.960938 L 249.132812 180.175781 L 249.355469 180.265625 L 249.925781 180.492188 L 250.46875 180.710938 L 251.023438 180.929688 L 251.566406 181.136719 L 252.109375 181.339844 L 252.640625 181.535156 L 253.175781 181.726562 L 253.707031 181.910156 L 254.226562 182.089844 L 254.753906 182.265625 L 255.277344 182.429688 L 255.789062 182.59375 L 256.296875 182.746094 L 256.8125 182.894531 L 257.316406 183.035156 L 257.40625 183.058594 L 257.574219 182.773438 L 231.554688 167.726562 L 220.046875 163.464844 L 220.402344 162.667969 L 219.996094 163.488281 Z M 219.988281 163.484375 " fill-opacity="1" fill-rule="evenodd"/><path fill="#eda169" d="M 220.035156 163.460938 L 231.542969 167.722656 L 238.582031 170.324219 L 242.738281 159.117188 L 230.304688 154.515625 L 224.207031 152.261719 L 224.027344 152.871094 L 223.597656 154.304688 C 222.875 156.742188 221.964844 159.171875 220.910156 161.523438 L 220.390625 162.675781 L 220.03125 163.46875 Z M 220.035156 163.460938 " fill-opacity="1" fill-rule="evenodd"/><path fill="#eda169" d="M 230.304688 154.511719 L 243.375 156.75 L 245.398438 144.972656 L 237.996094 143.703125 L 225.925781 141.628906 L 225.78125 143.039062 L 225.707031 143.75 C 225.449219 146.226562 225.007812 148.785156 224.394531 151.335938 L 224.027344 152.859375 L 224.207031 152.25 L 230.304688 154.503906 Z M 230.304688 154.511719 " fill-opacity="1" fill-rule="evenodd"/><path fill="#eda169" d="M 237.996094 143.707031 L 268.066406 143.707031 L 268.066406 131.753906 L 237.996094 131.753906 L 225.925781 133.820312 L 225.78125 132.414062 L 225.878906 133.878906 C 225.976562 135.351562 226.023438 136.578125 226.023438 137.730469 C 226.023438 138.882812 225.976562 140.109375 225.878906 141.582031 L 225.78125 143.046875 L 225.925781 141.640625 L 237.996094 143.710938 Z M 237.996094 143.707031 " fill-opacity="1" fill-rule="evenodd"/><path fill="#eda169" d="M 225.777344 132.417969 Z M 225.777344 132.417969 Z M 225.777344 132.417969 Z M 237.996094 131.753906 L 245.398438 130.484375 L 243.375 118.707031 L 231.417969 120.757812 L 224.253906 123.382812 L 224.058594 122.714844 L 224.394531 124.117188 C 225.007812 126.671875 225.449219 129.222656 225.707031 131.707031 L 225.78125 132.417969 L 225.78125 132.425781 L 225.878906 133.875 C 225.976562 135.347656 226.023438 136.574219 226.023438 137.726562 C 226.023438 138.878906 225.976562 140.105469 225.878906 141.578125 L 225.78125 143.042969 L 225.925781 141.636719 L 237.996094 143.707031 L 268.066406 143.707031 L 268.066406 131.753906 Z M 237.996094 131.753906 " fill-opacity="1" fill-rule="evenodd"/><path fill="#eda169" d="M 231.417969 120.757812 L 242.808594 116.582031 L 238.691406 105.363281 L 231.644531 107.945312 L 220.125 112.167969 L 220.464844 112.929688 L 220.992188 114.113281 C 222.035156 116.457031 222.929688 118.886719 223.65625 121.34375 L 224.0625 122.710938 L 224.257812 123.378906 L 231.421875 120.753906 Z M 231.417969 120.757812 " fill-opacity="1" fill-rule="evenodd"/><path fill="#eda169" d="M 220.121094 112.167969 L 231.640625 107.945312 L 257.707031 92.984375 L 251.75 82.617188 L 225.675781 97.585938 L 216.214844 105.40625 L 215.742188 104.753906 L 216.214844 105.464844 C 217.636719 107.582031 218.933594 109.835938 220.066406 112.136719 L 220.449219 112.921875 L 220.113281 112.164062 Z M 220.121094 112.167969 " fill-opacity="1" fill-rule="evenodd"/><path fill="#eda169" d="M 216.21875 105.410156 L 225.679688 97.589844 L 231.464844 92.804688 L 223.839844 83.601562 L 213.621094 92.050781 L 208.585938 96.214844 L 209 96.652344 L 210.050781 97.757812 C 211.820312 99.625 213.472656 101.625 214.972656 103.6875 L 215.75 104.761719 Z M 216.21875 105.410156 " fill-opacity="1" fill-rule="evenodd"/><path fill="#eda169" d="M 213.621094 92.039062 L 222.109375 81.859375 L 212.921875 74.207031 L 208.113281 79.976562 L 200.253906 89.402344 L 200.878906 89.855469 L 201.976562 90.652344 C 204.03125 92.148438 206.023438 93.8125 207.894531 95.589844 L 209 96.644531 L 208.585938 96.207031 Z M 213.621094 92.039062 " fill-opacity="1" fill-rule="evenodd"/><path fill="#eda169" d="M 200.253906 89.40625 L 208.113281 79.980469 L 223.175781 53.976562 L 212.824219 47.992188 L 197.765625 73.988281 L 193.5 85.488281 L 192.710938 85.132812 L 193.527344 85.535156 C 195.863281 86.691406 198.105469 87.992188 200.199219 89.398438 L 200.878906 89.855469 L 200.253906 89.402344 Z M 200.253906 89.40625 " fill-opacity="1" fill-rule="evenodd"/><path fill="#eda169" d="M 193.496094 85.488281 L 197.761719 73.988281 L 200.367188 66.957031 L 189.152344 62.804688 L 184.546875 75.234375 L 182.289062 81.324219 L 182.910156 81.507812 L 184.332031 81.929688 C 186.777344 82.652344 189.203125 83.5625 191.558594 84.617188 L 192.710938 85.136719 L 193.5 85.492188 Z M 193.496094 85.488281 " fill-opacity="1" fill-rule="evenodd"/><g clip-path="url(#08661b4813)"><path fill="#eda169" d="M 171.664062 79.605469 L 173.730469 67.546875 L 173.730469 37.5 L 161.769531 37.5 L 161.769531 67.542969 L 163.839844 79.605469 L 162.429688 79.753906 L 163.894531 79.65625 C 165.371094 79.558594 166.59375 79.515625 167.75 79.515625 C 168.902344 79.515625 170.128906 79.558594 171.605469 79.65625 L 173.074219 79.753906 Z M 171.664062 79.605469 " fill-opacity="1" fill-rule="evenodd"/></g><path fill="#eda169" d="M 173.730469 67.546875 L 171.664062 79.605469 L 173.074219 79.753906 L 173.78125 79.828125 C 176.261719 80.085938 178.820312 80.523438 181.375 81.140625 L 182.910156 81.507812 L 182.289062 81.324219 L 184.546875 75.234375 L 186.789062 62.171875 L 175.003906 60.152344 Z M 173.730469 67.546875 " fill-opacity="1" fill-rule="evenodd"/><path fill="#eda169" d="M 163.839844 79.605469 L 161.769531 67.542969 L 160.503906 60.148438 L 148.714844 62.167969 L 150.769531 74.117188 L 153.394531 81.273438 L 152.722656 81.472656 L 154.128906 81.136719 C 156.6875 80.519531 159.242188 80.078125 161.726562 79.824219 L 162.4375 79.75 L 163.84375 79.605469 Z M 163.839844 79.605469 " fill-opacity="1" fill-rule="evenodd"/><path fill="#eda169" d="M 137.941406 73.898438 L 122.960938 47.847656 L 112.59375 53.800781 L 127.574219 79.847656 L 135.402344 89.300781 L 134.753906 89.773438 L 135.460938 89.300781 C 137.582031 87.882812 139.835938 86.589844 142.140625 85.453125 L 142.9375 85.0625 L 142.167969 85.402344 L 137.941406 73.890625 Z M 137.941406 73.898438 " fill-opacity="1" fill-rule="evenodd"/><path fill="#eda169" d="M 127.574219 79.847656 L 122.785156 74.070312 L 113.566406 81.6875 L 122.023438 91.902344 L 126.191406 96.933594 L 126.632812 96.519531 L 127.742188 95.472656 C 129.613281 93.707031 131.605469 92.054688 133.675781 90.554688 L 134.753906 89.777344 L 135.402344 89.304688 L 127.574219 79.851562 Z M 127.574219 79.847656 " fill-opacity="1" fill-rule="evenodd"/><path fill="#eda169" d="M 122.027344 91.902344 L 111.839844 83.417969 L 104.179688 92.597656 L 109.953125 97.402344 L 119.390625 105.253906 L 119.828125 104.65625 L 120.644531 103.539062 C 122.140625 101.484375 123.804688 99.496094 125.585938 97.625 L 126.636719 96.515625 L 126.199219 96.933594 Z M 122.027344 91.902344 " fill-opacity="1" fill-rule="evenodd"/><path fill="#eda169" d="M 119.386719 105.253906 L 109.949219 97.402344 L 83.925781 82.351562 L 77.9375 92.695312 L 103.957031 107.746094 L 115.464844 112.003906 L 115.105469 112.8125 L 115.519531 111.976562 C 116.675781 109.640625 117.976562 107.398438 119.382812 105.3125 L 119.828125 104.652344 L 119.390625 105.25 Z M 119.386719 105.253906 " fill-opacity="1" fill-rule="evenodd"/><path fill="#eda169" d="M 115.464844 112.003906 L 103.957031 107.746094 L 96.921875 105.136719 L 92.765625 116.34375 L 105.203125 120.945312 L 111.296875 123.199219 L 111.480469 122.585938 L 111.902344 121.164062 C 112.628906 118.722656 113.53125 116.292969 114.59375 113.945312 L 115.105469 112.8125 Z M 115.464844 112.003906 " fill-opacity="1" fill-rule="evenodd"/><path fill="#eda169" d="M 105.199219 120.949219 L 92.121094 118.710938 L 90.101562 130.488281 L 97.5 131.757812 L 109.578125 133.828125 L 109.71875 132.417969 L 109.792969 131.710938 C 110.050781 129.222656 110.492188 126.671875 111.109375 124.121094 L 111.476562 122.59375 L 111.292969 123.207031 L 105.199219 120.953125 Z M 105.199219 120.949219 " fill-opacity="1" fill-rule="evenodd"/><path fill="#eda169" d="M 109.578125 133.820312 L 97.5 131.753906 L 67.4375 131.753906 L 67.4375 143.707031 L 97.503906 143.707031 L 109.578125 141.636719 L 109.71875 143.039062 L 109.625 141.582031 C 109.527344 140.109375 109.484375 138.886719 109.484375 137.730469 C 109.484375 136.578125 109.527344 135.351562 109.625 133.878906 L 109.71875 132.414062 Z M 109.578125 133.820312 " fill-opacity="1" fill-rule="evenodd"/><path fill="#eda169" d="M 109.578125 141.636719 L 97.503906 143.707031 L 90.105469 144.976562 L 92.125 156.753906 L 104.085938 154.703125 L 111.253906 152.078125 L 111.445312 152.734375 L 111.109375 151.34375 C 110.492188 148.789062 110.050781 146.238281 109.792969 143.757812 L 109.71875 143.046875 L 109.71875 143.039062 L 109.578125 141.640625 Z M 109.578125 141.636719 " fill-opacity="1" fill-rule="evenodd"/><path fill="#eda169" d="M 111.253906 152.078125 L 104.085938 154.703125 L 92.695312 158.878906 L 96.8125 170.097656 L 103.863281 167.515625 L 115.382812 163.292969 L 115.042969 162.535156 L 114.515625 161.347656 C 113.472656 159.003906 112.574219 156.574219 111.851562 154.121094 L 111.445312 152.738281 L 111.253906 152.082031 Z M 111.253906 152.078125 " fill-opacity="1" fill-rule="evenodd"/><path fill="#eda169" d="M 115.382812 163.292969 L 103.863281 167.515625 L 77.792969 182.484375 L 83.753906 192.84375 L 109.820312 177.875 L 119.28125 170.050781 L 119.75 170.691406 L 119.277344 169.992188 C 117.859375 167.875 116.5625 165.621094 115.425781 163.320312 L 115.039062 162.53125 L 115.378906 163.289062 Z M 115.382812 163.292969 " fill-opacity="1" fill-rule="evenodd"/><path fill="#eda169" d="M 119.28125 170.050781 L 109.820312 177.875 L 104.035156 182.660156 L 109.578125 189.351562 L 110.460938 188.769531 L 111.46875 188.09375 L 112.480469 187.402344 L 113.496094 186.699219 L 114.523438 185.988281 L 115.558594 185.261719 L 116.597656 184.527344 L 117.640625 183.789062 L 120.328125 181.867188 L 120.859375 181.496094 L 121.90625 180.753906 L 124.035156 179.242188 L 125.113281 178.476562 L 125.746094 178.027344 L 125.449219 177.714844 C 123.683594 175.847656 122.023438 173.855469 120.527344 171.785156 L 119.746094 170.703125 L 119.277344 170.0625 Z M 119.28125 170.050781 " fill-opacity="1" fill-rule="evenodd"/><path fill="#eda169" d="M 149.234375 69.675781 L 146.617188 62.550781 L 135.261719 66.722656 L 139.886719 79.304688 L 142.171875 85.5 L 142.730469 85.253906 L 144.140625 84.625 C 146.515625 83.570312 148.976562 82.660156 151.457031 81.929688 L 152.746094 81.550781 L 153.519531 81.320312 L 149.234375 69.671875 Z M 149.234375 69.675781 " fill-opacity="1" fill-rule="evenodd"/></svg>